<?xml version="1.0" standalone="no"?>
<svg version="1.0" xmlns="http://www.w3.org/2000/svg"
 width="40" height="40" viewBox="0 0 250 250"
 preserveAspectRatio="xMidYMid meet">

<g transform="translate(0,250) scale(0.100000,-0.100000)"
fill="#000000" stroke="none">
<path d="M1933 1626 c-132 -42 -200 -145 -225 -342 -13 -104 -2 -242 27 -324
54 -153 177 -231 346 -217 85 7 149 38 199 94 40 46 79 139 64 153 -7 6 -139
40 -157 40 -2 0 -12 -20 -21 -43 -22 -57 -55 -87 -103 -94 -63 -8 -110 17
-136 74 -20 44 -22 64 -22 223 0 158 2 179 22 222 27 59 68 82 130 75 54 -6
86 -34 109 -94 9 -23 19 -43 23 -43 3 0 22 4 41 9 19 6 54 15 78 21 50 13 51
22 16 95 -32 69 -101 130 -167 150 -61 18 -167 18 -224 1z"/>
<path d="M381 1588 c-19 -61 -221 -817 -221 -827 0 -7 34 -11 93 -11 l93 0 25
103 25 102 120 3 121 3 28 -106 28 -105 99 0 c54 0 98 2 98 5 0 2 -52 196
-115 429 -63 234 -115 428 -115 431 0 3 -60 5 -134 5 l-134 0 -11 -32z m183
-300 c21 -84 40 -159 43 -165 3 -10 -18 -13 -86 -13 -50 0 -91 2 -91 5 0 19
84 325 89 325 4 0 24 -69 45 -152z"/>
<path d="M990 1185 l0 -435 95 0 95 0 0 160 0 160 43 0 43 0 70 -157 70 -158
102 -3 c56 -1 102 0 102 3 0 3 -36 77 -80 165 -44 88 -80 163 -80 168 0 5 16
16 35 25 138 66 152 352 22 451 -62 48 -111 56 -324 56 l-193 0 0 -435z m359
274 c42 -15 51 -35 51 -117 0 -52 -5 -75 -17 -91 -21 -26 -76 -40 -150 -41
l-53 0 0 130 0 130 69 0 c37 0 82 -5 100 -11z"/>
</g>
</svg>
